<svg xmlns="http://www.w3.org/2000/svg" width="158" height="47" viewBox="0 0 158 47" fill="none">
  <g clip-path="url(#clip0_4701_137)">
    <path d="M19.3036 16.7851C20.9065 16.3079 22.5583 15.792 24.0739 15.0748C25.6794 14.3138 27.2772 12.5442 26.3113 10.6663C26.1572 10.3644 25.9337 10.0497 25.7102 9.77113C25.2453 9.18814 24.4335 9.01788 23.7682 9.35581C23.0412 9.72728 22.3245 10.1245 21.5744 10.4496C20.3542 10.9732 19.1007 11.404 17.8291 11.7832C15.5968 12.4488 13.1693 12.975 10.675 13.3878C10.0662 14.1281 9.537 14.9355 9.09773 15.7997C10.824 15.454 13.1076 14.9639 15.0445 14.5176C15.1319 13.6922 15.8177 13.0472 16.6577 13.0318C17.5542 13.0137 18.3249 13.7489 18.3506 14.6492C18.3763 15.5495 17.6236 16.3646 16.6937 16.3646C16.1697 16.3646 15.7021 16.1196 15.3964 15.7378C13.2001 16.246 10.5363 16.8083 8.48379 17.2004C8.2603 17.7989 8.08048 18.418 7.94434 19.0552C8.59168 18.9752 9.23645 18.8901 9.88379 18.7972C13.1025 18.3277 16.3032 17.6854 19.3062 16.7929L19.3036 16.7851Z" fill="#B77142"/>
    <path d="M33.9507 12.2794C32.2784 13.0868 30.5907 13.8684 28.9236 14.6913C28.2917 15.0034 27.6623 15.3285 27.0227 15.6148C26.3548 15.9115 25.6869 16.2056 25.0113 16.4841C23.7834 16.9923 22.5401 17.4644 21.2891 17.9081C16.619 19.5694 4.40431 22.2831 0.278809 23.2195C0.278809 23.2376 0.278809 23.2556 0.278809 23.2737C0.278809 24.0992 0.517708 24.8576 0.918442 25.4973C3.62596 24.837 7.07844 23.9625 10.4461 23.0725C10.5463 22.247 11.2425 21.6073 12.0928 21.6073C13.0098 21.6073 13.7522 22.3528 13.7522 23.2737C13.7522 24.1946 13.0098 24.9401 12.0928 24.9401C11.5687 24.9401 11.1012 24.6951 10.7955 24.3107C7.44321 25.1929 4.05752 26.0545 1.89459 26.5834C2.86303 27.3469 4.16028 27.6952 5.48064 27.3985C10.5926 26.2454 17.9676 24.5326 21.2531 23.4362C24.7955 22.2522 32.466 18.86 34.4337 12.0137C34.4028 12.1194 34.0329 12.2381 33.9507 12.2768V12.2794Z" fill="#00BADC"/>
    <path d="M21.7338 8.61361C21.4358 8.59298 21.1353 8.58008 20.8321 8.58008C18.0347 8.58008 15.4402 9.45973 13.3081 10.9533C15.1063 10.5767 16.8865 10.1459 18.6127 9.6403C19.6762 9.32817 20.7191 8.98508 21.7364 8.61619L21.7338 8.61361Z" fill="#B77142"/>
    <path d="M24.1069 24.7507C18.9616 26.381 13.6211 27.5599 9.27979 28.3596C9.71391 29.136 10.2354 29.8583 10.8185 30.5239C13.6827 29.8093 17.1583 28.8574 20.0765 28.0191C20.0816 27.1033 20.8214 26.3655 21.7359 26.3655C22.6504 26.3655 23.3954 27.111 23.3954 28.032C23.3954 28.9529 22.653 29.6984 21.7359 29.6984C21.1913 29.6984 20.711 29.4327 20.4079 29.0277C17.8082 29.768 14.4097 30.7096 11.6739 31.4138C12.1723 31.8833 12.7066 32.3167 13.2768 32.7037C16.5778 32.0278 20.2435 31.161 23.922 30.0724C26.46 29.3192 27.806 28.7233 29.951 27.2736C30.9785 26.5796 31.9033 25.651 32.5943 24.632C33.3392 23.5331 33.7014 22.3104 33.573 20.9922C30.7345 22.4342 27.4644 23.693 24.1069 24.7558V24.7507Z" fill="#5E428F"/>
    <path d="M14.6387 33.4981C16.4856 34.4861 18.5921 35.0484 20.8295 35.0484C24.6031 35.0484 28.0042 33.4542 30.406 30.9004C29.4556 31.148 28.4845 31.3802 27.5058 31.5917C23.2082 32.5255 18.7102 33.1214 14.6387 33.4955V33.4981Z" fill="#5E428F"/>
    <path d="M51.3313 10.7793C44.7962 10.7793 39.8667 15.825 39.8667 22.5295C39.8667 29.2339 44.8091 34.2796 51.3313 34.2796C56.3148 34.2796 60.3889 31.4085 62.1639 26.6775H57.3346C56.1555 28.7205 53.9951 29.9588 51.3287 29.9588C47.6759 29.9588 45.0711 27.7248 44.4983 24.0953H62.6109C62.6649 23.5923 62.706 23.0867 62.706 22.5836C62.706 16.0624 58.1592 10.7793 51.3287 10.7793H51.3313ZM44.6164 20.3523C45.3691 17.0271 47.8814 14.9376 51.3313 14.9376C54.7298 14.9376 57.2858 16.9472 58.1078 20.3523H44.6139H44.6164Z" fill="#797982"/>
    <path d="M67.5816 11.3339C66.1251 11.3313 64.8818 11.3262 64.8818 11.3262L67.5816 14.0374V33.7353H72.1695V11.3262H67.5816V11.3339Z" fill="#797982"/>
    <path d="M96.2265 14.2173C94.2254 12.0814 91.3587 10.7812 88.086 10.7812C81.8746 10.7812 77.0581 15.6851 77.0581 21.951C77.0581 28.2169 81.8746 33.0795 88.086 33.0795C90.9759 33.0795 93.5396 32.0837 95.4739 30.3992V31.4337C95.4739 35.6797 92.6533 38.2335 88.795 38.2335C85.9744 38.2335 83.3491 36.8767 82.4937 34.4183H77.9187C79.0566 39.3402 83.1153 42.3171 88.8309 42.3171C95.7333 42.3171 99.9667 37.955 99.9667 30.8042V11.3281H96.9587L96.2291 14.2199L96.2265 14.2173ZM88.6075 28.8025C84.6258 28.8025 81.7282 25.8694 81.7282 21.9484C81.7282 18.0274 84.6361 15.0763 88.6075 15.0763C92.5788 15.0763 95.4559 17.9784 95.4559 21.9484C95.4559 25.9185 92.5763 28.8025 88.6075 28.8025Z" fill="#797982"/>
    <path d="M116.332 10.7793C109.797 10.7793 104.868 15.825 104.868 22.5295C104.868 29.2339 109.81 34.2796 116.332 34.2796C121.316 34.2796 125.39 31.4085 127.165 26.6775H122.336C121.156 28.7205 118.996 29.9588 116.33 29.9588C112.677 29.9588 110.072 27.7248 109.499 24.0953H127.612C127.666 23.5923 127.707 23.0867 127.707 22.5836C127.707 16.0624 123.16 10.7793 116.33 10.7793H116.332ZM109.615 20.3523C110.367 17.0271 112.88 14.9376 116.33 14.9376C119.728 14.9376 122.284 16.9472 123.106 20.3523H109.612H109.615Z" fill="#797982"/>
    <path d="M144.394 10.8151C141.116 10.8151 138.36 12.1926 136.672 14.4523L136.464 11.3336L136.487 11.3129C136.462 11.3207 136.007 11.3233 135.337 11.3258H133.567C131.54 11.3233 129.2 11.3129 129.2 11.3129L132.583 14.7103V33.7324H137.171V21.7346C137.171 17.7749 139.66 14.945 143.164 14.945C146.668 14.945 148.283 17.1068 148.283 21.1774V33.7324H152.871V20.2384C152.871 14.718 149.611 10.8125 144.394 10.8125V10.8151Z" fill="#797982"/>
    <path d="M107.267 46.6758C106.597 46.276 106.085 45.7291 105.733 45.0352C105.382 44.3413 105.215 43.5725 105.23 42.7316C105.245 41.9396 105.443 41.2044 105.821 40.5234C106.198 39.8424 106.73 39.2955 107.419 38.8828C108.104 38.47 108.898 38.2637 109.795 38.2637C110.573 38.2637 111.251 38.4339 111.824 38.7744C112.397 39.1149 112.849 39.5432 113.175 40.0565C113.502 40.5698 113.702 41.0884 113.779 41.6094H111.955C111.896 41.3412 111.778 41.078 111.598 40.8201C111.418 40.5647 111.166 40.3506 110.843 40.1829C110.519 40.0152 110.144 39.9301 109.718 39.9301C109.214 39.9301 108.767 40.0539 108.372 40.3016C107.979 40.5492 107.673 40.8871 107.46 41.3128C107.247 41.7384 107.126 42.2105 107.103 42.7341C107.085 43.2888 107.18 43.7866 107.385 44.2252C107.591 44.6637 107.886 45.0042 108.271 45.2467C108.657 45.4918 109.101 45.613 109.605 45.613C110.041 45.613 110.44 45.5176 110.799 45.3292C111.159 45.1409 111.457 44.8752 111.691 44.5347C111.924 44.1942 112.068 43.7995 112.117 43.3533L113.941 43.392C113.882 44.0652 113.669 44.6998 113.299 45.2931C112.929 45.8864 112.428 46.3663 111.791 46.7326C111.154 47.0989 110.424 47.282 109.602 47.282C108.713 47.282 107.935 47.0808 107.264 46.6835L107.267 46.6758ZM109.504 42.5149H113.943V43.3868L113.039 43.8047H109.507V42.5175L109.504 42.5149Z" fill="#004697"/>
    <path d="M114.95 38.2584H116.836V45.3911H121.162V47.0317H114.95V38.2559V38.2584Z" fill="#004697"/>
    <path d="M123.6 46.6816C122.929 46.2869 122.421 45.7503 122.071 45.0719C121.725 44.3935 121.558 43.6299 121.576 42.7812C121.591 41.9738 121.789 41.2231 122.166 40.5344C122.544 39.8456 123.073 39.2936 123.756 38.8808C124.44 38.4681 125.234 38.2617 126.14 38.2617C127.047 38.2617 127.807 38.4604 128.473 38.855C129.138 39.2497 129.649 39.7914 130.001 40.4776C130.353 41.1638 130.52 41.9325 130.505 42.7812C130.487 43.6144 130.281 44.3754 129.888 45.059C129.495 45.7452 128.953 46.2869 128.267 46.6816C127.579 47.0763 126.808 47.2749 125.953 47.2749C125.056 47.2749 124.273 47.0763 123.602 46.6816H123.6ZM127.345 45.2241C127.738 44.9687 128.044 44.6231 128.262 44.1897C128.48 43.7563 128.596 43.2868 128.614 42.7812C128.622 42.2524 128.529 41.77 128.331 41.3366C128.134 40.9032 127.843 40.5602 127.458 40.3074C127.073 40.0546 126.61 39.9281 126.076 39.9281C125.573 39.9281 125.126 40.0597 124.73 40.3254C124.334 40.5911 124.031 40.9419 123.813 41.3805C123.595 41.819 123.476 42.2859 123.461 42.7812C123.443 43.3281 123.536 43.8156 123.731 44.2464C123.929 44.6746 124.219 45.01 124.604 45.2499C124.989 45.4898 125.442 45.6085 125.963 45.6085C126.485 45.6085 126.952 45.4795 127.345 45.2241Z" fill="#004697"/>
    <path d="M131.596 38.2578H133.482V47.0337H131.596V38.2578ZM132.1 42.1737H134.915C136.012 42.1737 136.867 42.3517 137.481 42.7102C138.093 43.0688 138.432 43.6183 138.499 44.3586C138.55 44.8229 138.452 45.2589 138.208 45.6716C137.964 46.0844 137.589 46.4146 137.083 46.6622C136.577 46.9098 135.979 47.0337 135.293 47.0337H131.948L132.1 42.1737ZM132.226 38.2578H135.331C136.338 38.2578 137.065 38.4926 137.512 38.9595C137.959 39.4264 138.172 40.0145 138.147 40.7213C138.113 41.4282 137.736 41.9647 137.016 42.331C136.295 42.6973 135.37 42.8805 134.237 42.8805H132.012L132.226 38.2604V38.2578ZM134.877 41.9699C135.336 41.9699 135.699 41.8744 135.958 41.6861C136.217 41.4978 136.356 41.2244 136.374 40.871C136.408 40.4995 136.3 40.2132 136.053 40.0068C135.806 39.8004 135.452 39.6972 134.99 39.6972H132.688L132.762 41.9699H134.874H134.877ZM134.928 45.5323C135.457 45.5323 135.866 45.4369 136.161 45.2408C136.454 45.0474 136.618 44.7559 136.652 44.3689C136.667 44.0413 136.557 43.773 136.318 43.5667C136.079 43.3603 135.711 43.2571 135.218 43.2571H132.742L132.691 45.5298H134.928V45.5323Z" fill="#004697"/>
    <path d="M141.792 38.2578H144.294L147.274 47.0337H145.311L144.708 45.2279H141.376L140.811 47.0337H138.761L141.792 38.2578ZM144.245 43.7885L142.999 40.177L141.792 43.7885H144.243H144.245Z" fill="#004697"/>
    <path d="M148.104 38.2584H149.989V45.3911H154.315V47.0317H148.104V38.2559V38.2584Z" fill="#004697"/>
  </g>
  <defs>
    <clipPath id="clip0_4701_137">
      <rect width="158" height="47" fill="white"/>
    </clipPath>
  </defs>
</svg>